<svg width="800" height="800" viewBox="0 0 64 64" xml:space="preserve" xmlns="http://www.w3.org/2000/svg"><path d="M394 489h49v6h-49z" style="fill:#3e4f59;fill-opacity:1;fill-rule:evenodd;stroke-width:2;stroke-linecap:round;stroke-linejoin:round;stroke-miterlimit:4.1" transform="translate(-384 -480)"/><path d="M394 495h49v40h-49z" style="fill:#acbec2;fill-opacity:1;fill-rule:evenodd;stroke-width:2.00001;stroke-linecap:round;stroke-linejoin:round;stroke-miterlimit:4.1" transform="translate(-384 -480)"/><path d="M394 495v40h29.77a28.484 41.393 35.6 0 0 18.625-40z" style="fill:#e8edee;fill-opacity:1;fill-rule:evenodd;stroke:none;stroke-width:2.00002;stroke-linecap:round;stroke-linejoin:round;stroke-miterlimit:4.1" transform="translate(-384 -480)"/><path d="M396 488c-1.645 0-3 1.355-3 3v40a1 1 0 1 0 2 0v-40c0-.564.436-1 1-1h45c.564 0 1 .436 1 1v3h-42a1 1 0 0 0 0 2h42v37c0 .564-.436 1-1 1h-49a1 1 0 0 0 0 2h49c1.645 0 3-1.355 3-3v-42c0-1.645-1.355-3-3-3z" style="color:#000;fill:#000;fill-rule:evenodd;stroke-linecap:round;stroke-linejoin:round;stroke-miterlimit:4.1" transform="translate(-384 -480)"/><path d="M439 491a1 1 0 1 0 0 2 1 1 0 0 0 0-2z" style="color:#000;fill:#ed7161;fill-opacity:1;fill-rule:evenodd;stroke-linecap:round;stroke-linejoin:round;stroke-miterlimit:4.1;-inkscape-stroke:none" transform="translate(-384 -480)"/><path d="M435 491a1 1 0 1 0 0 2 1 1 0 0 0 0-2z" style="color:#000;fill:#ecba16;fill-opacity:1;fill-rule:evenodd;stroke-linecap:round;stroke-linejoin:round;stroke-miterlimit:4.1;-inkscape-stroke:none" transform="translate(-384 -480)"/><path d="M431 491a1 1 0 1 0 0 2 1 1 0 0 0 0-2z" style="color:#000;fill:#42b05c;fill-opacity:1;fill-rule:evenodd;stroke-linecap:round;stroke-linejoin:round;stroke-miterlimit:4.1;-inkscape-stroke:none" transform="translate(-384 -480)"/><path d="M389 534a1 1 0 0 0-1 1 1 1 0 0 0 1 1 1 1 0 0 0 1-1 1 1 0 0 0-1-1zM397 494a1 1 0 1 0 0 2 1 1 0 0 0 0-2z" style="color:#000;fill:#000;fill-rule:evenodd;stroke-linecap:round;stroke-linejoin:round;stroke-miterlimit:4.1;-inkscape-stroke:none" transform="translate(-384 -480)"/><path d="M408.5 512h20c4.155 0 7.5 3.568 7.5 8s-3.345 8-7.5 8h-20c-4.155 0-7.5-3.568-7.5-8s3.345-8 7.5-8z" style="fill:#fe73c5;fill-opacity:1;fill-rule:evenodd;stroke:none;stroke-width:2;stroke-linecap:round;stroke-linejoin:round;stroke-miterlimit:4.1" transform="translate(-384 -480)"/><path d="M408.5 512c-4.155 0-7.5 3.568-7.5 8s3.345 8 7.5 8h20a7.11 7.11 0 0 0 3.43-.885A21.813 12.413 10.284 0 0 415.795 512Z" style="fill:#fe93d3;fill-opacity:1;fill-rule:evenodd;stroke:none;stroke-width:2;stroke-linecap:round;stroke-linejoin:round;stroke-miterlimit:4.1" transform="translate(-384 -480)"/><path d="M414 509h10v3h-10z" style="fill:#0588e2;fill-opacity:1;fill-rule:evenodd;stroke:none;stroke-width:2.00001;stroke-linecap:round;stroke-linejoin:round;stroke-miterlimit:4.1" transform="translate(-384 -480)"/><path d="M407.572 515.5v2.572H405v3.856h2.572v2.572h3.856v-2.572H414v-3.856h-2.572V515.5Z" style="fill:none;fill-opacity:1;fill-rule:evenodd;stroke:none;stroke-width:2.00001;stroke-linecap:round;stroke-linejoin:round;stroke-miterlimit:4.1" transform="translate(-384 -480)"/><path d="M407.572 515.5v2.572H405v3.856h2.572v2.572h3.856v-2.572H414v-3.856h-2.572V515.5Z" style="fill:#ffa221;fill-opacity:1;fill-rule:evenodd;stroke:none;stroke-width:2.00001;stroke-linecap:round;stroke-linejoin:round;stroke-miterlimit:4.1" transform="translate(-384 -480)"/><path d="M418.9 502.504a1 1 0 0 0-.671 1.63c.614.747.79 1.335.77 1.9-.022.563-.273 1.177-.794 1.86a1.008 1.008 0 0 0-.064.106H414a1 1 0 0 0-1 1v2a1 1 0 0 0 0 2h15.5c3.583 0 6.5 3.071 6.5 7s-2.917 7-6.5 7a1 1 0 0 0 0 2c4.727 0 8.5-4.065 8.5-9s-3.773-9-8.5-9H425v-2a1 1 0 0 0-2 0v2h-8v-1h5.535a1 1 0 0 0 0-2h-.045c.296-.594.483-1.224.508-1.89.042-1.099-.383-2.22-1.226-3.245a1 1 0 0 0-.872-.361zM408.5 511c-4.727 0-8.5 4.065-8.5 9s3.773 9 8.5 9H424a1 1 0 0 0 0-2h-15.5c-3.583 0-6.5-3.071-6.5-7s2.917-7 6.5-7a1 1 0 0 0 0-2z" style="color:#000;fill:#000;fill-rule:evenodd;stroke-linecap:round;stroke-linejoin:round;stroke-miterlimit:4.1" transform="translate(-384 -480)"/><path d="M405 518.072v3.856h2.572v2.572h3.856v-2.572h.515a7.947 7.906 0 0 0-4.37-3.856z" style="fill:#ffc343;fill-opacity:1;fill-rule:evenodd;stroke:none;stroke-width:2;stroke-linecap:round;stroke-linejoin:round;stroke-miterlimit:4.1" transform="translate(-384 -480)"/><path d="M407.572 514.5a1 1 0 0 0-1 1v1.572H405a1 1 0 0 0-1 1v3.856a1 1 0 0 0 1 1h1.572v1.572a1 1 0 0 0 1 1h3.856a1 1 0 0 0 1-1v-1.572H414a1 1 0 0 0 1-1v-3.856a1 1 0 0 0-1-1h-1.572V515.5a1 1 0 0 0-1-1zm1 2h1.856v1.572a1 1 0 0 0 1 1H413v1.856h-1.572a1 1 0 0 0-1 1v1.572h-1.856v-1.572a1 1 0 0 0-1-1H406v-1.856h1.572a1 1 0 0 0 1-1z" style="color:#000;fill:#000;fill-rule:evenodd;stroke-linecap:round;stroke-linejoin:round;stroke-miterlimit:4.1;-inkscape-stroke:none" transform="translate(-384 -480)"/><path d="M427 515c-1.093 0-2 .907-2 2s.907 2 2 2 2-.907 2-2-.907-2-2-2z" style="color:#000;fill:#0075d3;fill-opacity:1;fill-rule:evenodd;stroke-linecap:round;stroke-linejoin:round;stroke-miterlimit:4.1" transform="translate(-384 -480)"/><path d="M427 521c-1.093 0-2 .907-2 2s.907 2 2 2 2-.907 2-2-.907-2-2-2z" style="color:#000;fill:#0588e2;fill-opacity:1;fill-rule:evenodd;stroke-linecap:round;stroke-linejoin:round;stroke-miterlimit:4.1;-inkscape-stroke:none" transform="translate(-384 -480)"/><path d="M431 518c-1.093 0-2 .907-2 2s.907 2 2 2 2-.907 2-2-.907-2-2-2z" style="color:#000;fill:#0075d3;fill-opacity:1;fill-rule:evenodd;stroke-linecap:round;stroke-linejoin:round;stroke-miterlimit:4.1;-inkscape-stroke:none" transform="translate(-384 -480)"/><path d="M423 518c-1.093 0-2 .907-2 2s.907 2 2 2 2-.907 2-2-.907-2-2-2z" style="color:#000;fill:#0588e2;fill-opacity:1;fill-rule:evenodd;stroke-linecap:round;stroke-linejoin:round;stroke-miterlimit:4.1;-inkscape-stroke:none" transform="translate(-384 -480)"/><path d="M426.27 515.14A2.018 2.018 0 0 0 425 517c0 1.093.907 2 2 2 .385 0 .747-.113 1.055-.307.051-.223.08-.455.08-.693 0-1.262-.773-2.366-1.865-2.86z" style="color:#000;fill:#0588e2;fill-opacity:1;fill-rule:evenodd;stroke-width:1;stroke-linecap:round;stroke-linejoin:round;stroke-miterlimit:4.1" transform="translate(-384 -480)"/><path d="M430.135 519c-.36 0-.7.1-.994.271-.09.227-.141.473-.141.729 0 1.093.907 2 2 2 .36 0 .7-.1.994-.271.09-.227.14-.473.14-.729 0-1.093-.907-2-2-2z" style="color:#000;fill:#0588e2;fill-opacity:1;fill-rule:evenodd;stroke-linecap:round;stroke-linejoin:round;stroke-miterlimit:4.1;-inkscape-stroke:none" transform="translate(-384 -480)"/></svg>